<?xml version="1.0" standalone="no"?>
<!DOCTYPE svg PUBLIC "-//W3C//DTD SVG 20010904//EN"
 "http://www.w3.org/TR/2001/REC-SVG-20010904/DTD/svg10.dtd">
<svg version="1.0" xmlns="http://www.w3.org/2000/svg"
 width="600.000000pt" height="458.000000pt" viewBox="0 0 600.000000 458.000000"
 preserveAspectRatio="xMidYMid meet">
<g transform="translate(0.000000,458.000000) scale(0.100000,-0.100000)"
fill="#000000" stroke="none">
<path d="M2518 3567 l102 -102 0 -950 c0 -597 -4 -982 -10 -1035 -32 -258
-123 -426 -293 -541 l-62 -42 85 7 c296 23 535 162 663 386 39 68 85 215 96
310 7 54 11 410 11 975 l0 890 95 95 c52 52 95 98 95 102 0 5 -199 8 -442 8
l-443 0 103 -103z m712 64 c0 -4 -26 -33 -57 -63 -32 -31 -63 -64 -70 -75 -12
-17 -12 -17 -6 1 4 13 3 17 -5 12 -8 -5 -12 -248 -12 -919 -1 -831 -3 -970
-15 -1032 -2 -11 -4 -28 -4 -38 -1 -10 -5 -15 -11 -12 -5 3 -7 0 -4 -8 7 -18
-25 -117 -38 -117 -5 0 -7 -4 -4 -9 3 -4 -1 -17 -10 -27 -15 -18 -15 -18 -9 3
3 12 2 24 -3 27 -5 3 -8 -10 -6 -29 1 -20 -2 -33 -7 -30 -5 4 -6 -1 -3 -10 8
-19 -44 -97 -59 -88 -5 3 -7 2 -4 -4 9 -15 -63 -95 -80 -89 -8 3 -11 1 -8 -4
3 -6 1 -10 -5 -10 -6 0 -8 -4 -5 -10 3 -5 0 -10 -8 -10 -8 0 -22 -9 -32 -20
-10 -11 -22 -17 -26 -14 -5 3 -9 1 -9 -4 0 -12 -140 -74 -172 -77 -3 0 -9 -3
-13 -7 -4 -4 -13 -4 -21 -1 -8 3 -14 0 -14 -6 0 -6 -7 -11 -16 -11 -8 0 -12 5
-9 11 5 7 1 8 -11 1 -40 -20 -88 -32 -97 -23 -5 5 0 12 12 16 12 3 21 13 21
21 0 8 5 12 10 9 6 -3 10 -1 10 5 0 6 4 8 10 5 6 -3 7 1 4 9 -7 19 7 21 26 3
12 -10 12 -9 1 6 -12 15 -11 20 4 37 9 10 22 17 28 16 7 -2 9 -1 5 1 -8 5 17
59 36 78 6 7 22 45 36 86 14 41 29 77 34 80 5 4 6 14 3 22 -3 8 2 37 11 64 15
43 16 145 17 1058 0 556 -3 1024 -6 1040 -4 19 -12 29 -21 27 -9 -1 -33 17
-54 40 -21 24 -42 42 -46 41 -13 -5 -4 22 10 27 20 8 702 9 702 1z"/>
<path d="M2540 3615 c0 -5 5 -17 10 -25 5 -8 10 -10 10 -5 0 6 -5 17 -10 25
-5 8 -10 11 -10 5z"/>
<path d="M2688 1043 c7 -3 16 -2 19 1 4 3 -2 6 -13 5 -11 0 -14 -3 -6 -6z"/>
<path d="M1440 3295 c-282 -44 -461 -190 -515 -417 -46 -194 13 -387 160 -527
89 -84 163 -129 376 -227 299 -138 376 -210 386 -364 6 -76 -21 -161 -67 -214
-53 -60 -176 -106 -285 -106 -93 0 -117 17 -325 225 -107 107 -197 195 -200
195 -3 0 -4 -89 -2 -199 l3 -199 102 -20 c183 -38 260 -46 432 -46 203 0 285
17 434 90 208 103 321 284 321 515 0 151 -47 258 -155 357 -81 75 -140 109
-405 242 -220 110 -251 130 -306 184 -47 47 -63 72 -72 108 -25 99 -6 197 53
265 61 71 177 111 283 98 l57 -7 203 -201 202 -201 0 201 c0 183 -2 202 -17
207 -49 14 -201 37 -308 46 -155 13 -250 11 -355 -5z m492 -41 c31 -8 61 -14
65 -13 4 1 27 -2 51 -6 l42 -8 0 -153 0 -153 -55 51 c-30 28 -52 55 -49 60 3
4 1 7 -4 6 -5 -2 -38 25 -73 59 -35 33 -85 81 -111 106 -36 34 -44 47 -35 56
9 9 8 11 -4 6 -10 -4 -20 -2 -23 4 -9 14 121 4 196 -15z m-472 6 c13 -8 13
-10 -2 -10 -9 0 -30 -11 -47 -25 -28 -24 -30 -25 -41 -8 -9 15 -11 15 -6 1 2
-9 -6 -31 -19 -48 -14 -18 -21 -38 -18 -44 4 -6 0 -5 -9 2 -13 10 -18 10 -24
1 -4 -8 -3 -9 4 -5 7 4 12 3 12 -3 0 -5 -4 -13 -10 -16 -5 -3 -10 -12 -10 -18
0 -7 4 -6 10 3 11 17 13 10 4 -14 -3 -9 -9 -14 -13 -12 -10 6 -7 -147 3 -163
7 -10 6 -12 -4 -6 -7 4 -11 4 -8 -1 20 -43 33 -64 40 -64 4 0 8 -6 8 -14 0 -7
7 -19 15 -26 8 -7 12 -16 9 -21 -3 -5 2 -6 11 -3 11 5 14 2 8 -12 -4 -12 -3
-15 6 -10 8 5 18 0 27 -13 8 -12 21 -21 28 -21 8 0 19 -7 26 -15 7 -8 16 -12
21 -9 5 3 6 -3 2 -12 -4 -11 -3 -15 4 -11 15 10 44 -3 37 -15 -4 -6 2 -7 16
-3 15 5 20 4 16 -4 -5 -7 2 -11 19 -11 14 0 28 -7 32 -16 3 -8 12 -13 20 -10
8 3 11 1 8 -4 -6 -10 -5 -11 34 -15 14 -1 30 -10 36 -19 13 -17 30 -23 20 -7
-3 6 16 -2 42 -17 27 -14 50 -30 51 -34 2 -4 12 -8 22 -8 10 0 21 -7 24 -16 3
-8 10 -13 15 -10 5 4 16 -1 25 -10 9 -8 20 -13 25 -10 5 3 11 -1 15 -9 3 -8
12 -15 19 -15 8 0 22 -9 32 -20 10 -11 22 -17 28 -13 6 3 7 1 3 -5 -4 -7 8
-19 31 -30 24 -11 37 -24 37 -35 -2 -15 1 -16 14 -5 14 12 14 10 2 -12 -12
-23 -12 -24 4 -11 14 12 16 12 10 -3 -4 -9 -3 -16 2 -14 5 2 9 0 9 -4 0 -4 10
-15 23 -24 14 -9 21 -22 18 -31 -3 -8 -1 -11 4 -8 6 4 13 -7 16 -24 4 -17 10
-31 15 -31 10 0 11 -10 13 -165 1 -113 -10 -184 -35 -225 -5 -8 -17 -29 -26
-47 -9 -18 -21 -29 -26 -26 -7 4 -8 -1 -3 -12 5 -15 4 -16 -9 -5 -9 7 -18 10
-22 6 -3 -3 -1 -6 5 -6 7 0 12 -5 12 -11 0 -15 -26 -39 -34 -32 -3 4 -6 -1 -6
-9 0 -16 -26 -32 -39 -23 -4 2 -8 -2 -8 -9 0 -8 7 -12 15 -8 10 3 13 1 8 -6
-4 -7 -14 -12 -22 -12 -8 0 -27 -11 -42 -25 -26 -24 -49 -34 -38 -16 4 5 -4 7
-16 3 -13 -3 -17 -7 -10 -10 17 -5 -18 -30 -59 -42 -24 -7 -30 -6 -26 4 3 7
-1 13 -8 13 -7 0 -11 -6 -9 -12 5 -13 -43 -38 -57 -30 -5 4 -9 1 -9 -5 0 -8
-9 -10 -26 -6 -17 5 -23 3 -19 -4 4 -6 -5 -10 -22 -10 l-28 0 25 20 c14 11 31
20 38 20 6 0 12 5 12 11 0 5 4 7 10 4 5 -3 15 3 22 15 7 11 19 20 26 20 7 0
11 4 7 9 -3 6 2 14 11 19 9 5 16 12 15 15 0 4 8 26 18 49 11 24 22 68 26 98 3
30 9 64 11 75 4 16 3 17 -5 5 -9 -12 -11 -10 -11 11 0 34 -25 95 -50 122 -11
11 -17 24 -14 29 3 4 -2 8 -10 8 -9 0 -16 6 -16 14 0 7 -9 16 -21 19 -13 4
-18 10 -13 18 4 8 3 10 -4 5 -14 -8 -74 33 -66 45 3 5 -2 6 -11 3 -8 -4 -21
-2 -28 4 -28 23 -123 69 -134 65 -7 -3 -13 3 -13 14 0 13 -3 14 -8 5 -6 -9
-13 -8 -28 6 -11 10 -33 22 -49 26 -42 10 -77 35 -69 48 5 7 1 8 -12 0 -14 -8
-21 -6 -32 6 -10 13 -12 13 -7 2 6 -13 5 -13 -7 0 -7 8 -30 24 -50 34 -20 11
-35 24 -32 28 3 4 -4 8 -15 8 -12 0 -21 4 -21 8 0 5 -11 15 -25 22 -14 8 -24
19 -21 26 3 8 -1 11 -10 7 -7 -3 -14 0 -14 7 0 7 -21 32 -46 57 -25 25 -43 47
-40 50 3 3 -2 12 -10 20 -8 9 -13 21 -10 29 3 7 1 14 -4 16 -12 4 -43 155 -36
174 3 8 1 14 -4 14 -6 0 -10 10 -10 23 0 18 2 19 11 7 7 -11 8 -3 4 28 -4 24
-2 55 3 70 5 15 17 48 27 75 9 26 20 45 25 42 4 -3 6 3 4 12 -5 20 42 77 56
68 6 -3 7 1 4 9 -3 9 -1 16 6 16 6 0 8 5 4 12 -5 8 0 9 14 6 13 -4 20 -2 16 3
-10 17 17 40 40 34 14 -4 17 -3 8 3 -10 7 -10 11 1 21 12 9 18 8 32 -6 17 -16
17 -16 11 3 -5 17 1 24 36 40 23 10 48 18 55 16 7 -2 13 1 13 7 0 5 14 14 30
20 24 8 29 7 23 -2 -4 -8 -1 -7 10 1 9 8 25 11 37 7 11 -4 20 -2 20 4 0 14 20
14 40 1z m-427 -1495 c21 -18 27 -31 23 -48 -3 -12 -3 -16 0 -9 3 6 13 12 22
12 8 0 13 -2 10 -5 -3 -3 8 -19 24 -36 24 -24 28 -32 18 -44 -10 -12 -8 -13
11 -10 13 3 33 -5 51 -20 16 -14 27 -25 24 -25 -3 0 17 -22 44 -48 46 -45 66
-73 38 -56 -7 4 -8 3 -4 -4 4 -6 13 -9 20 -6 7 3 19 -2 26 -11 7 -8 20 -15 29
-15 12 0 13 -2 4 -8 -15 -9 -171 9 -192 23 -9 5 -12 4 -8 -2 4 -6 -23 -2 -60
8 -36 10 -70 16 -74 13 -5 -3 -9 0 -9 6 0 7 -7 10 -15 6 -17 -6 -21 9 -5 19 6
3 10 12 9 18 0 9 -2 9 -6 0 -13 -34 -18 -1 -18 127 0 77 2 140 5 140 3 0 18
-12 33 -25z"/>
<path d="M1578 2613 c7 -3 16 -2 19 1 4 3 -2 6 -13 5 -11 0 -14 -3 -6 -6z"/>
<path d="M1740 2536 c0 -2 7 -7 16 -10 8 -3 12 -2 9 4 -6 10 -25 14 -25 6z"/>
<path d="M1098 2413 c6 -2 9 -10 6 -15 -4 -7 -2 -8 5 -4 13 9 5 26 -12 25 -9
0 -8 -2 1 -6z"/>
<path d="M2017 2359 c7 -7 15 -10 18 -7 3 3 -2 9 -12 12 -14 6 -15 5 -6 -5z"/>
<path d="M2166 2187 c3 -10 9 -15 12 -12 3 3 0 11 -7 18 -10 9 -11 8 -5 -6z"/>
<path d="M2181 1784 c0 -11 3 -14 6 -6 3 7 2 16 -1 19 -3 4 -6 -2 -5 -13z"/>
<path d="M3533 3182 l97 -97 0 -735 0 -735 -95 -95 c-52 -52 -95 -97 -95 -100
0 -3 198 -5 440 -5 242 0 440 1 440 1 0 1 -45 45 -100 99 l-100 99 0 248 0
248 148 0 c451 0 721 147 799 435 36 134 24 301 -31 420 -51 111 -174 213
-316 260 -152 51 -212 55 -770 55 l-515 0 98 -98z m579 66 l21 5 -21 -21 c-12
-12 -22 -28 -22 -34 -7 -884 -5 -1025 13 -1044 11 -11 14 -20 7 -22 -5 -2 -7
-9 -3 -15 4 -6 1 -8 -8 -5 -12 5 -14 -30 -11 -226 3 -283 3 -278 25 -294 9 -7
17 -20 17 -28 0 -8 8 -18 17 -21 26 -10 53 -36 47 -45 -3 -4 3 -8 13 -8 17 -1
16 -2 -2 -17 -16 -13 -17 -15 -2 -10 22 8 49 -2 41 -15 -4 -6 -86 -8 -228 -4
-121 4 -287 3 -369 -1 -81 -5 -147 -8 -147 -7 0 1 11 13 25 28 25 27 42 35 29
14 -5 -8 0 -7 12 2 27 21 33 31 27 47 -5 12 8 18 30 14 5 -1 6 3 2 9 -3 6 -12
7 -18 4 -7 -4 -3 2 8 13 15 16 23 18 34 9 12 -8 13 -8 7 2 -4 7 -3 19 4 26 6
8 8 26 4 41 -5 18 -2 30 7 36 8 5 10 9 4 9 -13 0 -13 1388 -1 1410 5 8 6 12 1
8 -11 -11 -36 12 -28 25 3 6 1 7 -6 3 -6 -4 -8 -13 -5 -19 4 -7 -5 1 -19 16
-15 15 -26 32 -24 36 1 5 -1 8 -4 8 -11 -3 -39 25 -33 34 3 5 -1 7 -8 4 -7 -3
-19 5 -27 16 l-13 22 173 -6 c96 -3 226 -2 289 1 63 4 116 4 118 1 2 -4 12 -4
24 -1z m551 -35 c54 -16 95 -31 92 -34 -3 -3 6 -11 21 -17 14 -7 23 -8 19 -3
-3 5 7 3 22 -4 39 -20 93 -71 85 -81 -4 -4 -1 -4 6 0 23 14 111 -102 96 -126
-3 -5 0 -7 8 -6 7 2 13 -6 13 -17 1 -11 5 -26 9 -34 5 -7 10 -21 11 -30 0 -9
5 -32 9 -52 5 -24 4 -45 -4 -59 -7 -12 -8 -20 -3 -17 15 10 13 -93 -3 -158
-23 -94 -55 -161 -73 -157 -7 1 -10 -2 -6 -8 7 -12 -65 -101 -77 -94 -4 3 -8
0 -8 -7 0 -6 -8 -18 -17 -26 -19 -14 -67 -37 -69 -31 0 2 -8 -5 -18 -15 -20
-20 -42 -22 -50 -4 -3 6 -4 4 -3 -7 2 -15 -11 -23 -57 -38 -32 -10 -60 -17
-62 -15 -3 2 -30 -2 -62 -11 -31 -8 -76 -15 -99 -15 -23 -1 -39 -5 -37 -9 3
-4 -6 -4 -20 2 -14 5 -33 7 -43 3 -11 -4 -14 -3 -9 5 4 7 14 12 22 12 8 0 27
8 42 17 29 18 97 82 72 68 -8 -4 -3 3 13 18 15 14 27 33 27 42 0 9 4 14 9 11
5 -3 12 1 15 10 4 9 2 13 -5 8 -6 -3 -4 5 5 18 20 30 59 166 51 178 -3 5 -1
12 5 15 19 12 6 318 -18 409 -12 43 -26 84 -31 89 -6 6 -11 19 -11 29 0 10 -9
27 -20 38 -11 11 -18 20 -14 20 3 0 -9 14 -25 32 -17 18 -28 35 -25 37 3 3 9
0 13 -8 7 -10 9 -10 14 2 9 23 -4 29 -30 12 -21 -14 -27 -12 -24 8 1 5 -3 6
-8 3 -5 -3 -14 1 -21 9 -7 8 -15 13 -19 11 -4 -3 -13 0 -21 5 -10 7 22 9 100
6 87 -4 139 -12 213 -34z m-326 2 c94 -28 167 -123 208 -270 25 -93 31 -309
11 -425 -20 -112 -67 -217 -123 -274 -57 -58 -112 -79 -220 -84 l-93 -4 0 530
c0 415 3 531 13 535 27 11 156 6 204 -8z m-747 -1699 c0 -2 -6 -9 -14 -15 -11
-9 -16 -9 -22 0 -4 8 -3 9 4 5 7 -4 12 -2 12 3 0 6 5 11 10 11 6 0 10 -2 10
-4z"/>
<path d="M4096 1566 c6 -15 4 -17 -6 -11 -9 6 -11 4 -5 -4 5 -9 10 -10 18 -2
8 8 7 14 -2 24 -10 10 -11 8 -5 -7z"/>
<path d="M4510 3134 c0 -1 6 -7 14 -13 10 -9 15 -8 19 2 3 8 -3 13 -14 13 -11
0 -19 -1 -19 -2z"/>
<path d="M4459 2203 c-13 -16 -12 -17 4 -4 9 7 17 15 17 17 0 8 -8 3 -21 -13z"/>
</g>
</svg>
