<?xml version="1.0" standalone="no"?>
<!DOCTYPE svg PUBLIC "-//W3C//DTD SVG 20010904//EN"
 "http://www.w3.org/TR/2001/REC-SVG-20010904/DTD/svg10.dtd">
<svg version="1.0" xmlns="http://www.w3.org/2000/svg"
 width="600.000000pt" height="183.000000pt" viewBox="0 0 600.000000 183.000000"
 preserveAspectRatio="xMidYMid meet">
<g transform="translate(0.000000,183.000000) scale(0.100000,-0.100000)"
fill="#000000" stroke="none">
<path d="M163 1598 c-31 -35 -42 -61 -49 -119 -5 -46 -3 -58 14 -79 17 -20 24
-23 39 -14 45 26 77 154 51 203 -18 33 -31 35 -55 9z m33 -23 c14 -13 13 -22
-1 -77 -17 -67 -36 -95 -55 -83 -8 5 -9 10 -1 18 6 6 11 20 10 32 0 20 0 20
-10 0 -7 -16 -8 -13 -3 10 3 17 7 35 8 40 3 17 28 75 33 75 2 0 11 -7 19 -15z"/>
<path d="M289 1467 c-61 -46 -80 -167 -34 -212 28 -29 42 -31 74 -9 52 37 79
163 45 212 -17 25 -59 29 -85 9z m69 -41 c21 -41 6 -103 -33 -143 l-33 -35
-21 21 c-21 21 -26 63 -13 107 10 30 44 74 54 68 4 -3 8 0 8 6 0 20 24 5 38
-24z"/>
<path d="M40 1365 c-7 -9 -15 -37 -18 -64 -8 -91 49 -147 83 -81 41 79 -15
205 -65 145z m53 -72 c-1 -66 -3 -73 -21 -73 -26 0 -33 10 -21 31 7 15 7 19
-3 17 -14 -3 -13 28 3 71 9 23 11 23 26 8 10 -9 16 -32 16 -54z"/>
<path d="M450 1272 c-115 -114 -31 -317 90 -216 44 37 60 75 60 139 0 49 -4
60 -29 86 -41 41 -74 38 -121 -9z m115 -15 c17 -24 20 -41 6 -32 -6 3 -6 -6
-1 -23 11 -41 1 -82 -28 -117 -14 -16 -23 -22 -19 -12 4 11 3 16 -4 12 -5 -4
-18 -1 -27 6 -13 11 -12 8 2 -9 11 -12 15 -22 10 -23 -5 0 -16 -2 -25 -4 -29
-5 -61 50 -57 98 2 29 8 42 18 42 8 0 16 6 16 13 1 6 2 16 3 21 0 4 10 20 21
33 23 30 62 27 85 -5z m-119 -43 c1 -9 0 -13 -4 -10 -3 4 -7 14 -8 22 -1 9 0
13 4 10 3 -4 7 -14 8 -22z"/>
<path d="M151 1219 c-55 -51 -29 -199 34 -199 33 0 59 50 58 111 -1 79 -50
127 -92 88z m64 -47 c10 -23 11 -32 2 -36 -9 -3 -8 -7 2 -14 9 -7 10 -12 2
-16 -6 -4 -11 -13 -11 -19 0 -7 4 -6 10 3 5 8 10 10 10 4 0 -6 -9 -21 -19 -33
-17 -19 -23 -21 -41 -11 -12 7 -19 18 -16 25 3 8 1 17 -4 20 -12 7 -5 81 9 99
18 22 42 13 56 -22z"/>
<path d="M5892 1228 c-18 -18 -14 -46 9 -58 26 -14 49 3 49 35 0 32 -35 46
-58 23z m45 -14 c3 -8 -2 -23 -11 -32 -15 -15 -16 -14 -16 8 0 20 2 22 10 10
8 -13 10 -12 10 3 0 26 -30 21 -31 -5 0 -13 -3 -17 -6 -10 -7 19 4 42 22 42 9
0 18 -7 22 -16z"/>
<path d="M1096 1143 l2 -58 121 0 121 0 0 -217 0 -218 70 0 70 0 0 218 0 217
125 -3 125 -4 0 61 0 61 -317 0 -318 0 1 -57z m604 -3 l0 -30 -100 -1 c-55 -1
-106 -2 -112 -3 -28 -3 -39 -77 -36 -251 l3 -172 -42 -2 -43 -2 0 200 c0 125
-4 202 -10 206 -6 4 -8 10 -5 14 2 5 -3 8 -13 8 -9 0 -63 1 -119 2 l-103 1 0
30 0 30 290 0 290 0 0 -30z"/>
<path d="M1860 925 l0 -275 270 0 270 0 0 58 0 57 -200 -3 -200 -3 0 56 0 55
180 0 180 0 0 55 0 55 -181 0 -180 0 3 51 3 51 198 -2 197 -1 0 61 0 60 -270
0 -270 0 0 -275z m510 215 l0 -30 -167 -1 c-93 -1 -172 -1 -176 0 -4 1 -17 -3
-27 -9 -16 -9 -20 -21 -20 -64 0 -59 13 -78 58 -82 50 -5 275 -3 284 2 5 4 8
-9 5 -27 l-3 -34 -160 -1 c-88 0 -165 -4 -172 -8 -7 -4 -12 -30 -12 -64 0 -59
19 -91 52 -89 7 0 89 -1 181 -1 l168 -2 -3 -22 c-3 -23 -6 -23 -212 -31 -115
-5 -224 -6 -242 -2 l-34 6 0 244 0 245 240 0 240 0 0 -30z"/>
<path d="M2665 968 c-65 -128 -129 -252 -142 -275 l-25 -43 74 0 74 0 28 58
27 57 169 -3 168 -3 23 -54 24 -55 73 0 c39 0 72 3 72 6 0 3 -53 108 -117 232
-65 125 -126 246 -137 270 l-20 42 -87 0 -87 0 -117 -232z m283 190 c7 -7 12
-20 12 -30 0 -10 7 -21 16 -25 8 -3 13 -12 10 -20 -4 -9 -2 -11 6 -7 7 5 9 2
5 -9 -3 -9 0 -18 9 -21 8 -3 13 -9 13 -13 -1 -4 5 -25 15 -46 9 -21 14 -42 11
-48 -4 -5 -2 -8 4 -7 6 2 17 -8 25 -22 28 -49 59 -115 58 -122 -1 -5 2 -8 6
-8 8 0 44 -73 48 -97 3 -19 -65 -17 -72 2 -4 8 -10 12 -15 9 -5 -3 -9 1 -9 9
0 8 -7 20 -16 28 -8 7 -14 22 -12 34 3 13 -1 22 -8 22 -7 0 -10 -5 -7 -11 4
-6 0 -5 -9 2 -12 10 -58 13 -165 13 -173 0 -173 0 -195 -26 -35 -40 -37 -43
-31 -49 12 -11 -30 -46 -56 -46 -26 0 -68 20 -43 20 6 0 12 7 12 16 0 9 5 12
12 8 8 -5 9 -2 5 10 -9 22 10 59 25 50 8 -5 9 -1 5 10 -6 14 -3 17 10 12 15
-6 16 -5 6 5 -15 15 -17 33 -3 24 5 -3 7 0 5 7 -3 8 2 23 12 33 10 11 20 29
21 40 2 11 7 22 10 25 16 12 41 68 34 75 -4 5 -1 5 6 1 7 -4 12 -1 12 7 0 8 7
20 15 27 18 15 20 34 3 24 -8 -5 -8 -1 2 12 22 30 24 30 17 9 -7 -20 -7 -20 8
-1 11 14 12 22 4 27 -8 4 -7 9 4 15 15 9 17 13 17 34 0 15 143 13 158 -2z"/>
<path d="M2852 1093 c-7 -3 -17 -16 -23 -30 -5 -15 -14 -21 -21 -17 -7 4 -8 3
-4 -4 4 -6 -6 -35 -21 -64 -15 -29 -27 -57 -28 -63 0 -5 -6 -9 -12 -8 -6 1 -9
-6 -5 -19 4 -16 2 -19 -9 -13 -8 4 -4 -2 9 -14 13 -13 30 -20 38 -17 8 3 13 2
10 -2 -2 -4 46 -7 107 -7 61 0 103 1 94 3 -15 3 -15 6 4 21 18 15 19 19 8 32
-22 23 -23 50 -2 43 15 -5 15 -4 3 4 -8 6 -18 8 -22 6 -4 -3 -18 17 -30 43
-13 26 -29 54 -35 61 -18 19 -16 27 2 12 10 -8 15 -9 15 -1 0 9 -52 43 -62 40
-2 0 -9 -3 -16 -6z m73 -113 c27 -54 51 -104 53 -109 2 -7 -35 -11 -112 -11
l-116 0 58 110 c31 60 59 109 62 109 3 0 27 -45 55 -99z"/>
<path d="M2767 1039 c7 -7 15 -10 18 -7 3 3 -2 9 -12 12 -14 6 -15 5 -6 -5z"/>
<path d="M2710 919 c0 -5 5 -7 10 -4 6 3 10 8 10 11 0 2 -4 4 -10 4 -5 0 -10
-5 -10 -11z"/>
<path d="M3045 909 c-4 -6 -5 -12 -2 -15 2 -3 7 2 10 11 7 17 1 20 -8 4z"/>
<path d="M3121 736 c-9 -10 -8 -15 3 -19 11 -4 13 -1 9 10 -5 12 -3 14 7 8 9
-5 11 -4 6 3 -9 15 -11 15 -25 -2z"/>
<path d="M3320 925 l0 -275 244 0 244 0 4 60 3 60 -177 0 -178 0 0 215 0 215
-70 0 -70 0 0 -275z m110 51 c0 -121 4 -197 10 -201 6 -4 8 -10 6 -14 -6 -10
-10 -10 174 -11 107 -1 157 -5 162 -13 13 -20 9 -37 -9 -38 -16 0 -15 -1 1 -8
18 -7 18 -8 -5 -14 -28 -8 -391 -9 -411 -2 -10 4 -12 53 -10 250 l3 245 39 0
40 0 0 -194z"/>
<path d="M3930 925 l0 -275 70 0 70 0 0 275 0 275 -70 0 -70 0 0 -275z m110
13 c0 -128 -4 -239 -8 -246 -5 -7 -19 -14 -31 -17 -47 -9 -50 6 -51 259 l-1
236 46 0 45 0 0 -232z"/>
<path d="M4210 1014 c0 -211 9 -261 53 -304 48 -47 120 -63 272 -63 156 0 232
18 281 67 46 46 54 88 54 299 l0 187 -67 0 -68 0 0 -174 c0 -192 -6 -214 -60
-240 -47 -22 -160 -31 -227 -17 -95 20 -98 28 -98 247 l0 184 -70 0 -70 0 0
-186z m112 -1 c1 -87 2 -170 2 -185 1 -19 4 -24 13 -17 8 8 10 4 6 -11 -3 -11
-2 -20 3 -18 5 1 29 -8 53 -21 40 -21 53 -22 145 -17 172 10 175 10 166 21 -8
9 13 38 22 30 2 -2 5 5 5 17 1 12 7 24 14 28 8 6 11 55 10 169 l-1 161 45 0
46 0 -2 -172 c-3 -141 -6 -178 -21 -207 -9 -18 -15 -37 -13 -42 8 -12 -54 -52
-70 -45 -8 3 -17 0 -21 -6 -5 -7 -2 -8 7 -3 8 5 10 4 6 0 -11 -13 -31 -16
-162 -22 -76 -3 -142 -1 -180 7 -33 7 -68 13 -77 13 -9 1 -15 4 -13 7 1 3 -3
11 -11 18 -8 7 -14 9 -14 5 0 -4 -4 -1 -9 6 -6 9 -6 22 -1 32 7 13 5 16 -7 15
-25 -2 -28 32 -25 225 l3 169 39 0 40 0 2 -157z"/>
<path d="M5050 1181 c0 -20 -76 -463 -87 -509 -5 -23 -4 -23 68 -20 l73 3 32
197 c18 108 34 202 36 208 2 6 40 -82 84 -197 l81 -208 79 -3 80 -3 85 216 86
215 22 -138 c11 -75 26 -172 33 -214 l12 -78 73 0 c40 0 73 3 73 8 0 7 -11 67
-60 334 -16 92 -30 177 -30 188 0 19 -6 20 -104 20 l-104 0 -83 -201 c-46
-111 -84 -198 -86 -193 -2 5 -36 95 -77 199 l-74 190 -106 3 c-100 3 -106 2
-106 -17z m202 -19 c6 -6 6 -18 -2 -32 -7 -12 -8 -20 -2 -16 16 10 34 -21 35
-60 1 -20 3 -31 5 -25 3 8 9 6 18 -6 19 -25 17 -38 -3 -22 -10 7 -8 2 5 -12
12 -14 22 -33 22 -42 0 -9 4 -18 8 -21 5 -3 17 -33 27 -66 18 -60 40 -86 62
-72 5 4 18 25 29 47 10 22 24 46 30 52 7 7 10 23 7 35 -3 16 -2 19 5 10 7 -11
10 -9 15 7 3 13 1 19 -5 15 -9 -6 7 32 33 79 5 10 7 23 3 29 -4 7 -3 8 4 4 8
-5 12 0 12 13 0 11 5 23 10 26 6 4 8 11 5 16 -4 5 -2 9 3 9 5 0 12 9 15 20 5
19 12 21 88 18 l83 -3 7 -35 c19 -98 19 -101 6 -94 -8 5 -8 3 1 -9 8 -9 15
-31 17 -49 2 -18 10 -60 19 -93 15 -58 31 -168 27 -181 -2 -4 3 -10 10 -15 17
-10 -28 -22 -67 -17 -34 4 -42 25 -43 116 -1 44 -4 61 -12 56 -9 -5 -10 9 -7
50 3 31 2 52 -2 46 -8 -12 -20 36 -20 76 0 31 -20 74 -35 74 -7 0 -18 -13 -25
-30 -7 -16 -17 -27 -23 -23 -6 3 -7 1 -3 -6 4 -6 2 -18 -4 -26 -7 -8 -10 -15
-6 -15 4 0 0 -13 -9 -30 -8 -16 -14 -35 -13 -42 2 -7 -2 -12 -8 -11 -6 1 -11
-5 -11 -13 0 -14 -22 -68 -66 -164 -11 -25 -20 -47 -20 -50 1 -3 -25 -6 -58
-8 -37 -2 -59 1 -59 7 0 6 0 13 0 16 0 3 -9 14 -20 25 -12 12 -18 25 -15 31 4
5 -2 25 -13 43 -11 18 -23 48 -27 65 -4 17 -11 31 -16 31 -6 0 -7 5 -4 10 4 6
1 18 -6 27 -7 8 -15 27 -17 41 -2 15 -8 33 -15 40 -6 8 -12 20 -13 27 -1 8
-11 23 -22 35 -17 18 -21 19 -32 6 -12 -16 -27 -66 -35 -126 -3 -19 -10 -62
-15 -95 -5 -33 -10 -77 -10 -97 0 -29 -4 -38 -17 -38 -10 0 -14 -4 -8 -8 13
-9 18 -32 7 -32 -4 0 -14 6 -21 13 -9 7 -11 7 -8 1 8 -13 -12 -24 -37 -20 -19
3 -19 3 -10 74 3 29 10 55 15 58 5 3 9 10 9 15 0 6 -5 7 -12 3 -8 -5 -9 -2 -4
12 4 10 16 69 27 129 10 61 21 121 24 135 3 14 7 34 9 45 5 31 6 31 16 15 9
-13 10 -13 10 0 0 12 14 15 71 13 40 -1 76 -6 81 -11z"/>
<path d="M5616 1097 c3 -10 9 -15 12 -12 3 3 0 11 -7 18 -10 9 -11 8 -5 -6z"/>
<path d="M5526 843 c-6 -14 -5 -15 5 -6 7 7 10 15 7 18 -3 3 -9 -2 -12 -12z"/>
<path d="M5751 824 c0 -11 3 -14 6 -6 3 7 2 16 -1 19 -3 4 -6 -2 -5 -13z"/>
<path d="M656 1036 c-94 -57 -102 -177 -16 -249 42 -36 90 -43 146 -22 120 46
132 208 18 272 -50 29 -99 29 -148 -1z m131 -14 c33 -18 55 -43 49 -58 -3 -8
0 -11 8 -8 9 3 13 -10 15 -46 1 -37 -2 -52 -13 -56 -8 -3 -13 -11 -10 -19 6
-15 -63 -58 -83 -51 -8 3 -11 1 -8 -4 9 -14 -8 -12 -24 3 -11 10 -12 9 -6 -2
4 -8 -15 -1 -44 15 -36 20 -51 34 -48 45 3 9 0 23 -5 30 -8 11 -8 10 -4 -4 3
-10 2 -16 -3 -12 -16 9 -4 91 17 113 7 8 10 17 7 22 -7 12 73 47 104 45 14 -1
36 -7 48 -13z"/>
<path d="M805 969 c-4 -6 -5 -12 -2 -15 2 -3 7 2 10 11 7 17 1 20 -8 4z"/>
<path d="M287 1039 c-52 -30 -64 -147 -21 -198 55 -66 134 -18 134 80 0 60
-19 101 -55 117 -31 14 -35 14 -58 1z m38 -38 c-5 -13 -4 -14 6 -3 18 16 32
15 26 -2 -4 -11 -1 -13 10 -9 13 5 14 3 3 -17 -7 -12 -7 -20 -2 -16 15 9 19
-34 6 -71 -13 -40 -24 -53 -18 -21 2 12 2 17 -2 10 -3 -6 -10 -10 -14 -7 -5 3
-12 0 -16 -6 -4 -8 -3 -9 4 -5 7 4 12 2 12 -3 0 -12 -29 -14 -54 -5 -15 6 -15
8 1 20 15 12 15 13 1 8 -11 -4 -19 2 -24 18 -10 33 -11 77 0 71 5 -3 6 0 4 8
-3 8 3 24 14 36 22 24 53 20 43 -6z"/>
<path d="M146 835 c-37 -38 -27 -142 18 -184 78 -73 132 82 60 169 -28 33 -54
38 -78 15z m38 -17 c-5 -7 -2 -9 9 -5 27 10 59 -103 36 -130 -1 -2 -2 -7 -3
-13 0 -5 -7 -15 -15 -22 -12 -11 -13 -10 -8 3 4 13 1 16 -16 12 -18 -4 -19 -3
-7 6 13 9 13 11 -2 11 -10 0 -19 5 -19 10 -3 19 -4 25 -10 35 -3 6 -4 29 -1
53 4 39 5 41 19 25 8 -10 12 -12 8 -5 -6 12 1 32 11 32 3 0 2 -5 -2 -12z"/>
<path d="M418 779 c-10 -5 -22 -27 -28 -47 -14 -55 4 -109 55 -159 36 -37 49
-43 83 -43 52 0 82 34 82 94 -1 105 -117 199 -192 155z m80 -18 c7 0 10 -6 6
-12 -4 -7 -1 -10 7 -7 18 6 57 -36 65 -70 3 -15 9 -35 15 -44 6 -12 6 -18 -1
-18 -6 0 -10 -8 -8 -17 2 -11 -8 -22 -24 -30 -23 -12 -33 -11 -63 1 -23 10
-34 20 -29 27 4 7 3 9 -3 6 -12 -8 -35 16 -41 42 -13 55 -13 79 0 92 8 8 13
20 11 26 -3 8 5 11 24 9 15 -2 34 -4 41 -5z"/>
<path d="M36 674 c-18 -48 13 -152 52 -173 60 -32 70 105 12 167 -24 26 -55
29 -64 6z m59 -32 c-2 -2 3 -22 11 -44 17 -48 17 -58 3 -58 -5 0 -7 5 -3 12 4
7 3 8 -4 4 -6 -4 -9 -13 -6 -21 4 -8 11 -12 17 -8 6 3 7 1 3 -5 -11 -19 -31
-3 -47 36 -25 65 -15 127 16 99 7 -7 12 -14 10 -15z"/>
<path d="M4854 649 c-19 -22 -19 -22 4 -8 12 8 22 17 22 21 0 12 -6 9 -26 -13z"/>
<path d="M257 592 c-21 -23 -22 -90 -3 -135 17 -41 70 -87 101 -87 50 0 71 82
41 155 -31 74 -102 108 -139 67z m80 -16 c2 -2 5 -13 6 -24 0 -11 6 -18 13
-15 14 5 29 -31 19 -47 -3 -5 -1 -10 4 -10 16 0 9 -53 -9 -72 -15 -14 -20 -15
-48 -1 -21 10 -29 20 -25 31 4 9 2 13 -5 8 -13 -8 -25 26 -26 77 -1 26 3 36
11 32 7 -2 12 -1 12 3 -4 22 3 30 22 27 12 -3 24 -6 26 -9z"/>
<path d="M132 468 c-32 -32 -1 -149 52 -198 76 -70 90 90 15 175 -33 37 -48
42 -67 23z m43 -24 c13 -5 14 -9 4 -15 -10 -6 -7 -11 11 -18 14 -5 19 -10 12
-10 -10 -1 -10 -5 2 -17 18 -17 17 -15 21 -62 3 -40 -7 -47 -33 -24 -22 19
-59 97 -40 86 7 -5 8 -3 2 7 -11 17 -13 59 -3 59 4 0 15 -3 24 -6z"/>
<path d="M205 340 c3 -5 8 -10 11 -10 2 0 4 5 4 10 0 6 -5 10 -11 10 -5 0 -7
-4 -4 -10z"/>
</g>
</svg>
