<?xml version="1.0" standalone="no"?>
<!DOCTYPE svg PUBLIC "-//W3C//DTD SVG 20010904//EN"
 "http://www.w3.org/TR/2001/REC-SVG-20010904/DTD/svg10.dtd">
<svg version="1.0" xmlns="http://www.w3.org/2000/svg"
 width="600.000000pt" height="600.000000pt" viewBox="0 0 600.000000 600.000000"
 preserveAspectRatio="xMidYMid meet">
<g transform="translate(0.000000,600.000000) scale(0.100000,-0.100000)"
fill="#000000" stroke="none">
<path d="M1280 3000 l0 -940 958 0 957 0 940 940 940 940 -1897 0 -1898 0 0
-940z m3685 911 c-3 -5 -1 -12 4 -15 5 -4 13 -1 17 5 5 8 3 9 -7 4 -8 -5 -11
-4 -6 0 4 5 17 10 29 12 24 4 21 -2 -47 -70 -41 -40 -45 -42 -62 -28 -16 15
-16 15 -3 -2 12 -16 8 -23 -30 -62 -24 -24 -48 -41 -53 -38 -6 3 -7 1 -3 -5 7
-12 -61 -79 -75 -75 -5 2 -6 -3 -4 -10 2 -6 -9 -23 -26 -35 -25 -21 -32 -22
-47 -11 -12 10 -11 7 3 -10 18 -22 18 -24 2 -18 -11 4 -16 3 -12 -3 3 -6 -6
-21 -22 -35 -29 -26 -49 -33 -37 -13 4 7 3 8 -5 4 -9 -6 -9 -11 1 -24 11 -13
10 -15 -5 -9 -10 4 -16 3 -13 -2 3 -4 -8 -21 -24 -36 -26 -25 -32 -26 -47 -15
-15 12 -16 12 -5 0 15 -18 16 -34 0 -24 -7 4 -8 3 -4 -4 4 -7 -5 -23 -21 -37
-27 -24 -49 -33 -39 -17 3 5 -1 9 -9 9 -11 0 -12 -4 -4 -13 13 -16 -19 -66
-38 -59 -7 2 -10 -1 -7 -8 2 -7 -18 -31 -45 -54 -48 -41 -69 -54 -56 -34 3 5
1 12 -4 15 -10 6 -9 -19 1 -29 9 -9 -42 -56 -53 -50 -5 4 -6 -2 -2 -12 6 -17
6 -17 -14 0 -16 14 -23 15 -29 6 -4 -8 -3 -10 5 -5 6 4 14 0 17 -9 6 -15 -42
-63 -58 -58 -4 2 -4 -5 -1 -15 6 -16 5 -16 -13 0 -16 14 -23 15 -32 6 -7 -7
-12 -16 -12 -22 0 -5 7 -1 15 10 8 10 15 17 15 14 9 -40 5 -46 -24 -41 -5 1
-6 -5 -3 -13 4 -9 3 -15 -1 -15 -21 3 -33 -3 -30 -15 2 -8 0 -14 -3 -13 -4 1
-17 -9 -28 -23 -17 -20 -17 -16 4 16 46 74 67 151 67 249 0 50 -5 104 -12 120
-7 17 -14 43 -16 58 -4 30 -58 107 -75 107 -5 0 -8 6 -7 13 2 6 -3 11 -11 9
-9 -2 -11 3 -7 13 3 9 2 13 -4 10 -5 -3 -27 3 -49 15 -22 11 -64 25 -92 31
-37 8 -48 14 -38 20 9 7 5 8 -12 3 -15 -3 -30 -1 -33 5 -4 6 -15 11 -24 11
-15 0 -15 -2 -2 -11 12 -8 9 -9 -10 -4 -14 4 -139 9 -277 12 l-253 6 -13 -32
c-7 -17 -16 -29 -20 -26 -4 3 -3 -1 3 -7 14 -16 14 -688 0 -688 -5 0 -11 5
-11 10 -1 6 -2 14 -3 19 0 5 -4 13 -8 16 -4 4 -3 16 3 27 13 23 3 39 -19 31
-9 -3 -14 -3 -10 2 4 4 1 20 -6 34 -12 23 -49 117 -51 131 -2 15 -29 88 -39
105 -6 11 -11 27 -12 35 0 8 -8 32 -18 54 -9 21 -15 45 -12 53 4 9 2 11 -5 7
-8 -5 -10 4 -7 29 3 31 2 34 -11 24 -12 -10 -14 -9 -7 8 4 11 4 16 0 12 -11
-10 -44 81 -37 101 4 15 3 15 -7 2 -10 -13 -11 -11 -7 7 4 16 -1 24 -14 28
-11 4 -17 9 -15 13 2 4 -60 7 -139 7 -93 0 -141 -4 -137 -10 4 -6 1 -6 -9 0
-19 14 -55 12 -52 -3 2 -7 -1 -12 -6 -12 -5 0 -12 -14 -16 -31 -4 -17 -12 -28
-18 -26 -7 3 -13 -6 -14 -21 -1 -18 1 -21 8 -11 16 25 9 0 -9 -33 -9 -18 -28
-65 -42 -105 -13 -39 -27 -70 -32 -67 -4 3 -5 -2 -2 -10 3 -9 1 -16 -5 -16 -7
0 -11 -6 -10 -12 1 -7 1 -22 0 -33 -1 -17 -3 -18 -12 -5 -9 12 -10 12 -5 -4 4
-11 -4 -36 -20 -63 -14 -24 -23 -50 -21 -58 8 -18 -46 -148 -64 -153 -10 -4
-9 1 4 15 9 11 17 23 17 28 0 5 -6 0 -14 -11 -14 -18 -15 -18 -45 10 -16 16
-29 33 -28 38 1 5 -19 21 -45 36 -26 14 -45 29 -42 34 3 4 -3 9 -13 10 -10 0
-23 2 -30 2 -17 2 -41 26 -26 26 6 0 14 -5 16 -10 3 -6 4 -5 3 2 -2 7 -14 12
-28 10 -14 -1 -38 4 -54 13 -16 8 -40 15 -54 15 -20 0 -22 2 -10 11 12 8 10 9
-7 4 -12 -3 -24 -1 -28 5 -3 6 -11 8 -16 5 -5 -4 -9 -1 -9 5 0 6 -4 9 -9 6
-14 -9 -42 5 -34 17 3 5 2 7 -4 4 -14 -9 -95 31 -88 43 4 6 1 10 -4 10 -6 0
-11 7 -11 15 0 8 5 15 11 15 5 0 8 4 5 9 -3 4 12 8 34 7 26 -1 36 1 30 8 -12
15 107 11 162 -5 24 -7 54 -13 67 -14 14 0 26 -6 28 -12 3 -7 11 -9 20 -6 9 4
14 2 11 -3 -4 -5 10 -10 30 -12 20 -1 40 -8 45 -15 6 -8 7 -6 3 6 -4 12 10 42
39 85 25 37 45 72 45 79 0 7 5 13 11 13 6 0 8 -7 5 -16 -3 -9 -2 -12 5 -9 5 4
7 16 4 26 -4 11 -1 27 6 35 23 28 -17 78 -71 88 -3 1 -9 4 -15 7 -5 4 -25 10
-42 14 -18 3 -33 11 -33 16 0 6 -3 8 -8 5 -4 -2 -27 0 -52 5 -105 21 -213 28
-288 18 -42 -6 -87 -11 -99 -11 -13 0 -20 -4 -17 -9 3 -5 -4 -9 -15 -9 -11 0
-23 -5 -27 -11 -3 -6 -15 -9 -25 -6 -11 3 -17 2 -15 -2 2 -3 -7 -11 -20 -18
-18 -8 -24 -8 -24 0 0 7 -4 6 -9 -3 -6 -8 -8 -17 -6 -21 3 -3 -7 -5 -20 -3
-14 1 -23 -2 -19 -7 3 -5 11 -6 17 -3 9 5 9 4 1 -5 -6 -7 -20 -13 -32 -14 -11
0 -19 -4 -16 -8 2 -4 -4 -12 -13 -18 -14 -8 -15 -10 -3 -11 10 0 11 -3 3 -8
-17 -11 -68 -115 -65 -134 2 -9 -1 -18 -5 -21 -10 -6 -18 607 -8 622 4 8 548
11 1836 11 1127 0 1828 -4 1824 -9z m-2924 -355 c106 -27 173 -57 183 -81 3
-9 2 -14 -3 -11 -5 3 -37 -41 -71 -99 l-62 -104 -37 18 c-106 54 -307 75 -364
38 -33 -22 -41 -39 -33 -72 8 -33 68 -66 217 -120 68 -25 148 -57 177 -72 74
-37 146 -111 169 -173 l19 -51 12 38 c6 21 67 186 135 367 l124 329 164 -1
164 -1 43 -118 c97 -260 226 -613 253 -688 l29 -80 0 445 0 445 292 -5 c272
-6 298 -8 358 -29 85 -30 121 -53 169 -107 58 -66 76 -127 76 -259 0 -98 -3
-116 -26 -166 -72 -153 -224 -229 -459 -229 l-90 0 0 -165 0 -164 -285 -3
-286 -3 -21 73 c-17 58 -25 72 -37 67 -82 -32 -260 -32 -362 0 -12 4 -22 -12
-43 -64 l-27 -70 -160 -3 c-169 -3 -168 -4 -149 46 11 29 -1 34 -21 9 -19 -23
-109 -61 -188 -79 -94 -23 -266 -20 -362 5 -85 22 -213 76 -207 88 7 15 110
218 112 220 2 2 28 -11 59 -27 147 -80 364 -71 398 16 7 20 6 32 -6 50 -24 37
-55 53 -188 98 -216 74 -296 127 -344 224 -24 48 -28 69 -28 137 0 71 4 89 33
147 50 101 135 163 277 200 96 25 264 18 396 -16z m-721 -418 c-1 -13 -1 -32
0 -43 l1 -20 10 20 c9 18 9 18 5 -3 -3 -14 3 -31 12 -41 9 -10 23 -26 30 -37
7 -10 10 -13 6 -5 -5 9 -3 12 5 7 6 -4 9 -11 6 -16 -7 -11 50 -51 60 -42 4 4
2 -3 -4 -16 -12 -22 -11 -23 8 -13 25 14 34 14 26 1 -3 -5 1 -10 9 -10 9 0 16
-4 16 -10 0 -5 5 -10 11 -10 5 0 7 6 4 13 -4 6 1 3 10 -8 9 -11 17 -19 18 -17
4 7 57 -10 57 -18 0 -4 7 -11 16 -14 8 -3 13 -2 10 3 -3 4 12 3 34 -2 25 -7
35 -14 27 -19 -9 -5 -9 -8 0 -8 6 0 20 -3 30 -6 15 -5 15 -4 3 5 -8 6 -10 11
-4 11 5 0 19 -7 30 -16 10 -8 13 -12 5 -8 -9 5 -12 3 -7 -5 5 -7 13 -8 23 -2
24 13 101 -42 99 -70 0 -12 -7 -24 -15 -27 -9 -3 -11 0 -6 8 5 8 4 11 -3 6
-15 -9 -3 -38 12 -29 6 3 8 2 3 -2 -16 -18 -251 -30 -240 -12 4 7 0 8 -11 4
-10 -4 -47 7 -93 29 l-76 35 -33 -36 c-18 -21 -30 -43 -28 -50 3 -7 0 -16 -7
-21 -8 -5 -10 -3 -4 6 5 9 4 11 -4 6 -6 -4 -9 -11 -6 -16 6 -10 -36 -90 -47
-90 -5 0 -6 -5 -2 -12 4 -6 3 -8 -4 -4 -11 6 -15 543 -5 599 7 33 15 36 13 5z
m2635 -288 c-10 -11 -22 -20 -28 -20 -5 0 1 9 14 20 31 25 37 25 14 0z m-40
-46 c-16 -17 -29 -19 -19 -2 4 7 3 8 -4 4 -6 -4 -9 -12 -6 -20 3 -7 -2 -13
-10 -13 -8 0 -12 5 -9 10 3 6 1 7 -5 3 -6 -3 -14 -1 -18 5 -4 7 -3 9 2 6 5 -3
20 3 34 13 28 21 58 17 35 -6z m-58 -36 c14 -11 -33 -62 -49 -52 -7 5 -8 2 -3
-5 9 -15 -62 -84 -78 -74 -6 4 -7 1 -2 -6 8 -14 -62 -84 -75 -76 -4 3 -7 -2
-6 -11 0 -9 -8 -21 -19 -28 -11 -6 -26 -19 -33 -29 -7 -9 -19 -14 -25 -11 -7
4 -9 3 -4 -1 9 -11 -43 -66 -55 -59 -5 3 -7 0 -6 -8 2 -7 -3 -12 -10 -10 -8 1
-11 -2 -7 -8 9 -15 -82 -99 -95 -86 -8 8 -9 6 -5 -5 4 -10 -25 -46 -92 -112
l-98 -97 -941 0 -941 0 -7 42 c-4 22 -6 115 -5 206 l1 164 22 -21 c12 -12 28
-21 35 -21 7 0 9 -4 6 -10 -3 -6 1 -7 9 -4 9 4 18 0 22 -9 3 -9 12 -13 20 -10
8 3 14 1 14 -4 0 -5 6 -10 13 -10 6 0 44 -8 82 -18 51 -14 107 -19 210 -19
141 0 178 6 282 50 28 12 34 11 55 -5 17 -15 26 -16 40 -7 15 9 21 8 28 -4 5
-8 10 -10 10 -5 0 6 23 9 52 8 157 -7 228 -7 228 0 0 5 -6 5 -12 2 -7 -4 -4 1
6 9 11 9 25 16 30 16 6 0 4 5 -4 11 -12 9 -11 10 7 6 15 -3 20 -1 16 9 -3 8
-9 11 -14 8 -5 -3 -6 2 -3 10 3 9 11 13 17 9 6 -3 7 -1 3 5 -4 6 -2 20 3 31
10 18 14 18 81 5 39 -7 76 -16 82 -20 7 -4 8 -3 4 4 -5 8 5 12 34 12 23 0 39
-4 36 -9 -4 -6 5 -6 21 -1 71 22 108 29 116 21 4 -4 10 -23 12 -42 6 -45 25
-79 44 -79 14 0 14 -2 1 -10 -8 -5 -10 -10 -4 -10 6 0 13 3 17 6 3 3 130 5
281 5 187 -1 276 1 276 9 0 5 7 10 15 10 13 0 14 4 4 21 -9 18 -8 20 9 15 11
-4 23 -3 26 2 3 6 -2 9 -12 8 -15 -1 -17 11 -20 104 -2 58 0 120 3 139 l6 33
95 -5 c59 -3 92 -1 88 5 -4 5 4 9 17 8 13 -1 29 -1 34 0 6 1 22 1 36 0 16 -1
29 5 33 15 6 16 15 14 43 -7z m-1782 -318 c-3 -5 -2 -10 3 -10 6 0 13 -8 16
-17 6 -15 5 -15 -13 1 -18 16 -20 36 -5 36 3 0 2 -4 -1 -10z"/>
<path d="M4806 3751 c-4 -5 -2 -12 3 -15 5 -4 12 -2 15 3 4 5 2 12 -3 15 -5 4
-12 2 -15 -3z"/>
<path d="M4733 3665 c0 -8 4 -12 9 -9 5 3 6 10 3 15 -9 13 -12 11 -12 -6z"/>
<path d="M2406 3473 c-4 -10 0 -23 11 -32 15 -15 16 -15 5 0 -7 9 -10 24 -6
33 3 9 4 16 1 16 -3 0 -8 -8 -11 -17z"/>
<path d="M4326 3272 c-3 -6 1 -15 8 -21 8 -7 17 -8 20 -3 3 6 -1 15 -8 21 -8
7 -17 8 -20 3z"/>
<path d="M1688 3263 c7 -3 16 -2 19 1 4 3 -2 6 -13 5 -11 0 -14 -3 -6 -6z"/>
<path d="M3021 3214 c0 -11 3 -14 6 -6 3 7 2 16 -1 19 -3 4 -6 -2 -5 -13z"/>
<path d="M1795 3190 c-3 -6 1 -7 9 -4 18 7 21 14 7 14 -6 0 -13 -4 -16 -10z"/>
<path d="M2201 2973 c-1 -17 16 -25 25 -12 4 7 3 9 -4 5 -5 -3 -13 0 -15 6 -4
9 -6 10 -6 1z"/>
<path d="M2541 3454 c0 -11 3 -14 6 -6 3 7 2 16 -1 19 -3 4 -6 -2 -5 -13z"/>
<path d="M3480 3170 l0 -153 79 5 c131 8 191 56 191 156 0 96 -48 133 -182
140 l-88 4 0 -152z m165 116 c11 -2 23 -5 28 -5 4 -1 7 -9 8 -18 0 -10 3 -13
6 -6 3 10 7 10 18 0 11 -10 11 -16 -2 -37 -10 -16 -11 -20 -2 -12 7 6 16 12
20 12 12 0 3 -99 -10 -114 -6 -7 -10 -15 -8 -17 1 -2 -6 5 -16 16 -18 20 -18
20 -8 -2 10 -19 8 -24 -11 -35 -13 -7 -29 -11 -35 -10 -7 2 -13 -1 -13 -5 0
-12 -88 -15 -95 -3 -4 6 -11 8 -16 5 -10 -6 -13 202 -4 227 6 14 89 16 140 4z"/>
<path d="M2668 3204 c-3 -5 -28 -84 -56 -175 -28 -91 -54 -173 -57 -182 -13
-31 117 -49 198 -26 20 5 37 11 37 12 -2 23 -119 377 -122 371z m7 -84 c-3 -5
3 -30 14 -55 11 -25 23 -61 27 -81 3 -19 10 -36 14 -39 5 -3 6 -15 3 -28 -4
-18 -3 -19 7 -7 9 13 10 12 8 -5 -1 -11 1 -26 6 -34 9 -14 -20 -45 -34 -36 -3
2 -36 5 -73 6 -49 2 -67 6 -67 16 0 7 7 16 16 20 9 3 11 8 6 12 -6 4 4 47 24
111 43 133 42 130 49 130 4 0 3 -4 0 -10z"/>
<path d="M2607 2859 c7 -7 15 -10 18 -7 3 3 -2 9 -12 12 -14 6 -15 5 -6 -5z"/>
<path d="M2715 2850 c4 -6 11 -8 16 -5 14 9 11 15 -7 15 -8 0 -12 -5 -9 -10z"/>
<path d="M1367 2977 c-3 -8 1 -14 8 -14 7 0 11 6 8 14 -3 7 -6 13 -8 13 -2 0
-5 -6 -8 -13z"/>
<path d="M1668 2813 c6 -2 18 -2 25 0 6 3 1 5 -13 5 -14 0 -19 -2 -12 -5z"/>
<path d="M3538 2733 c12 -2 32 -2 45 0 12 2 2 4 -23 4 -25 0 -35 -2 -22 -4z"/>
<path d="M3766 2712 c-3 -6 1 -15 8 -21 8 -7 17 -8 20 -3 3 6 -1 15 -8 21 -8
7 -17 8 -20 3z"/>
<path d="M3686 2632 c-3 -6 1 -15 8 -21 8 -7 17 -8 20 -3 3 6 -1 15 -8 21 -8
7 -17 8 -20 3z"/>
<path d="M3605 2550 c-3 -5 -5 -10 -3 -11 33 -8 38 -7 27 7 -14 17 -16 17 -24
4z"/>
<path d="M2030 2420 c-9 -6 -10 -10 -3 -10 6 0 15 5 18 10 8 12 4 12 -15 0z"/>
<path d="M2440 2421 c0 -6 4 -13 10 -16 6 -3 7 1 4 9 -7 18 -14 21 -14 7z"/>
<path d="M3445 2390 c-3 -5 -5 -10 -3 -11 33 -8 38 -7 27 7 -14 17 -16 17 -24
4z"/>
</g>
</svg>
