<?xml version="1.0" standalone="no"?>
<!DOCTYPE svg PUBLIC "-//W3C//DTD SVG 20010904//EN"
 "http://www.w3.org/TR/2001/REC-SVG-20010904/DTD/svg10.dtd">
<svg version="1.0" xmlns="http://www.w3.org/2000/svg"
 width="225.000000pt" height="225.000000pt" viewBox="0 0 225.000000 225.000000"
 preserveAspectRatio="xMidYMid meet">
<g transform="translate(0.000000,225.000000) scale(0.100000,-0.100000)"
fill="#000000" stroke="none">
<path d="M895 1267 c-25 -27 -26 -37 -6 -61 14 -16 14 -18 1 -11 -22 13 -59
14 -57 1 1 -6 -4 -10 -10 -8 -7 1 -13 -6 -13 -17 0 -10 -8 -25 -17 -32 -16
-13 -17 -12 -4 4 12 15 12 17 -3 11 -10 -4 -16 -1 -16 8 0 12 -40 54 -49 51
-2 -1 -8 -7 -12 -15 -7 -10 -9 -10 -9 2 0 13 -1 13 -10 0 -5 -8 -10 -10 -10
-5 0 16 -242 14 -258 -2 -20 -20 -37 -16 -21 5 11 14 11 15 -1 5 -9 -9 -19 -9
-34 -2 -21 10 -21 10 -1 -6 20 -17 19 -17 -5 -10 -14 4 -27 12 -28 16 -2 5 -8
9 -13 9 -6 0 -7 -5 -3 -11 4 -7 -1 -7 -16 1 -18 9 -24 9 -30 0 -4 -7 -19 -13
-32 -13 -15 -1 -24 -7 -21 -14 3 -6 0 -20 -6 -30 -10 -17 -10 -17 -11 3 0 11
-7 29 -15 40 -17 22 -20 13 -5 -16 6 -11 15 -29 20 -40 6 -11 10 -29 10 -40 0
-11 3 -19 8 -19 27 5 34 -3 12 -14 -19 -10 -25 -20 -24 -44 0 -28 -3 -30 -25
-26 -14 2 -22 1 -19 -3 13 -12 68 -13 61 0 -5 8 -3 8 8 0 20 -16 77 -25 84
-14 4 6 10 8 14 5 5 -2 16 4 26 15 10 11 22 17 26 14 14 -8 -1 -25 -14 -18 -7
4 -9 4 -5 -1 4 -4 30 -9 58 -11 27 -2 54 -5 59 -9 5 -3 12 -1 16 5 4 6 12 7
24 0 12 -6 22 -5 28 1 7 7 17 8 30 1 26 -14 55 9 58 48 1 17 5 34 8 37 4 3 2
14 -4 24 -6 13 -6 19 1 19 5 0 10 -7 10 -16 0 -8 4 -13 10 -9 5 3 6 13 3 23
-6 15 -4 15 15 -2 12 -11 22 -14 22 -8 0 7 -4 12 -10 12 -5 0 -10 5 -10 10 0
6 4 10 8 10 14 0 41 -66 38 -93 -2 -15 0 -24 5 -22 4 3 10 1 14 -5 3 -5 11
-10 16 -10 13 0 4 29 -31 100 -43 91 -43 90 -10 90 17 0 30 -4 30 -9 0 -5 10
-30 22 -57 l21 -49 25 58 c20 47 29 57 49 57 29 0 28 -5 -23 -115 -26 -56 -40
-75 -54 -75 -11 0 -20 -5 -20 -10 0 -6 13 -9 29 -8 16 1 27 6 25 10 -8 12 10
10 23 -3 15 -15 28 7 15 24 -13 16 -10 59 4 64 6 2 14 -5 17 -17 3 -11 1 -20
-4 -20 -5 0 -9 -5 -9 -11 0 -5 4 -8 9 -5 4 3 7 -5 6 -18 l-3 -23 134 0 c73 1
132 3 129 5 -4 4 20 32 28 32 3 0 4 -8 3 -17 -1 -13 5 -17 23 -15 14 2 21 0
17 -7 -5 -7 7 -9 36 -6 104 12 105 13 104 124 l-1 89 63 0 c52 0 69 -5 90 -23
23 -20 27 -32 30 -94 l4 -71 -30 0 -31 0 3 55 c3 64 -10 88 -45 83 -22 -3 -24
-7 -27 -70 -3 -68 -3 -68 -32 -68 -42 0 -37 -16 5 -18 25 -1 35 3 35 13 0 8 5
15 10 15 12 0 9 22 -5 33 -6 5 -1 7 10 5 11 -2 20 -11 20 -19 0 -31 25 -49 65
-46 29 1 36 6 32 17 -5 13 -4 13 12 0 21 -17 73 -21 100 -7 12 6 16 6 12 -1
-3 -5 9 -9 29 -8 19 0 35 5 35 10 0 4 7 5 16 2 8 -3 12 -2 9 3 -3 5 -1 12 4
16 6 3 8 13 4 23 -3 9 4 4 14 -13 30 -45 50 -60 66 -46 8 6 18 7 22 3 5 -4 5
-1 1 6 -4 6 -3 12 3 12 5 0 17 3 27 7 13 5 16 3 12 -8 -4 -9 1 -15 11 -15 9
-1 25 -5 35 -9 13 -6 17 -5 12 3 -3 6 2 16 13 22 14 7 22 7 27 -2 4 -6 3 -8
-4 -4 -6 3 -13 2 -16 -3 -3 -5 9 -7 27 -4 17 2 38 4 45 5 17 2 27 45 13 62 -6
7 -22 12 -35 11 -18 -2 -23 1 -19 11 3 8 10 11 15 8 6 -4 5 3 -1 15 -9 16 -9
21 0 19 6 -2 13 8 15 22 3 13 10 28 17 32 9 6 9 8 -1 8 -7 0 -11 4 -8 9 6 9
-27 21 -72 27 -19 2 -20 1 -8 -12 8 -8 26 -14 39 -14 l24 0 -33 -85 c-19 -46
-34 -89 -34 -95 0 -5 -10 -10 -23 -10 -20 0 -26 9 -41 57 l-19 58 -16 -55
c-12 -41 -22 -56 -37 -58 -17 -2 -26 11 -53 80 -18 46 -35 89 -38 96 -4 10 2
13 22 10 24 -2 31 -11 46 -53 l17 -50 11 28 c6 15 14 39 17 52 4 17 13 25 29
25 17 0 26 -10 39 -43 9 -23 16 -49 17 -57 0 -8 9 9 21 38 14 37 17 57 10 64
-12 12 -32 2 -32 -15 0 -7 4 -6 10 3 6 9 10 10 10 3 0 -6 -4 -14 -9 -18 -12
-7 -31 24 -31 51 0 4 -7 1 -15 -6 -10 -8 -15 -9 -15 -1 0 7 -7 7 -25 -1 -23
-10 -29 -20 -26 -40 0 -4 -6 -5 -15 -1 -13 5 -13 7 -2 14 10 7 9 9 -4 9 -10 0
-16 6 -14 13 1 6 1 9 -1 4 -3 -4 -10 -4 -16 0 -19 12 -38 12 -31 1 4 -6 1 -9
-7 -6 -8 3 -20 -2 -27 -11 -12 -15 -13 -14 -8 1 2 9 -2 19 -10 22 -9 3 -12 1
-9 -4 7 -11 -8 -14 -18 -4 -4 4 -21 8 -38 9 -22 2 -27 0 -18 -6 12 -7 11 -9
-1 -9 -8 0 -22 5 -30 10 -11 7 -16 4 -20 -12 -7 -28 -45 -31 -67 -5 -10 11
-13 17 -6 14 6 -4 14 -3 17 2 7 10 -13 9 -30 -1 -6 -4 -25 -3 -42 1 -22 7 -32
6 -36 -2 -3 -9 -7 -8 -14 2 -8 11 -10 11 -15 0 -5 -12 -7 -12 -15 0 -8 11 -14
11 -33 -4 -14 -10 -17 -15 -7 -12 12 4 15 2 11 -9 -5 -14 -8 -14 -22 1 -14 14
-14 17 -1 25 12 7 10 9 -7 7 -12 0 -19 -5 -17 -9 3 -4 0 -8 -5 -8 -6 0 -11 3
-11 8 0 4 -13 7 -30 8 -16 1 -27 -2 -25 -6 3 -5 -2 -11 -11 -14 -22 -8 -24 -8
-24 7 0 8 -7 14 -15 14 -10 0 -12 -4 -4 -13 5 -6 9 -16 8 -20 -4 -22 3 -24 23
-10 53 38 120 6 134 -62 l7 -32 -66 0 c-55 0 -65 -3 -61 -15 8 -20 47 -29 72
-16 18 10 42 -1 42 -19 0 -12 -50 -30 -81 -30 -57 0 -104 74 -80 127 10 21 9
29 -4 43 -8 9 -12 20 -8 25 5 4 -1 5 -11 1 -14 -5 -16 -4 -8 6 8 10 -1 13 -43
13 -29 0 -51 -4 -48 -9 3 -5 -6 -7 -21 -4 -15 3 -26 1 -26 -6 0 -6 -5 -3 -11
7 -5 9 -7 22 -4 27 10 17 -5 50 -23 50 -15 0 -15 2 -2 10 21 13 3 13 -22 -1
-15 -8 -19 -8 -14 0 12 19 -8 10 -29 -12z m64 -21 c17 -20 2 -46 -25 -46 -26
0 -40 20 -30 45 7 19 40 20 55 1z m-413 -59 c4 -4 -5 -6 -19 -5 -15 1 -27 6
-27 10 0 9 36 5 46 -5z m438 -13 c3 -8 2 -12 -4 -9 -6 3 -10 10 -10 16 0 14 7
11 14 -7z m-627 -8 c12 -12 -21 -36 -45 -34 -39 5 -36 -15 7 -33 47 -20 57
-49 28 -85 -18 -23 -26 -26 -64 -21 -53 6 -72 20 -54 41 9 11 18 12 41 3 22
-8 33 -8 41 0 9 9 5 15 -17 24 -66 29 -84 73 -41 104 21 15 89 16 104 1z m157
-8 c15 -13 29 -38 32 -55 l7 -33 -66 0 c-55 0 -65 -3 -61 -15 8 -21 51 -30 69
-15 12 10 18 10 31 -1 15 -12 14 -15 -6 -31 -32 -26 -83 -23 -117 6 -23 20
-28 32 -28 71 0 39 5 51 28 71 35 30 78 31 111 2z m96 12 c0 -7 6 -7 19 0 33
17 51 12 51 -14 0 -18 -7 -25 -30 -29 -30 -6 -30 -7 -30 -72 0 -65 0 -65 -28
-65 l-29 0 1 95 c1 92 2 95 24 95 12 0 22 -5 22 -10z m350 -85 c0 -95 0 -95
-25 -95 -25 0 -25 0 -25 95 0 95 0 95 25 95 25 0 25 0 25 -95z m168 79 c22
-15 22 -17 6 -35 -12 -13 -21 -16 -28 -9 -14 14 -49 13 -64 -2 -15 -15 -15
-51 0 -66 15 -15 50 -16 65 -1 8 8 17 7 32 -3 28 -17 27 -25 -9 -43 -40 -21
-82 -19 -112 5 -14 10 -28 16 -32 13 -4 -4 2 -14 13 -23 21 -15 21 -15 -4 -16
-19 -2 -24 3 -22 17 2 10 6 21 9 24 3 3 3 26 0 50 -4 39 -1 47 26 75 35 34 83
40 120 14z m580 2 c32 -16 54 -52 54 -87 1 -36 -6 -79 -11 -74 -2 3 -10 0 -18
-7 -10 -8 -20 -8 -39 2 -20 11 -31 11 -58 2 -47 -17 -51 -16 -71 27 -43 96 50
185 143 137z m-148 -16 c0 -5 -4 -10 -10 -10 -5 0 -10 5 -10 10 0 6 5 10 10
10 6 0 10 -4 10 -10z m-102 -46 c4 2 7 -11 7 -28 0 -27 -3 -32 -18 -28 -15 4
-16 7 -5 13 11 7 11 9 -1 9 -11 0 -11 3 0 17 12 15 12 16 -5 10 -16 -7 -17 -5
-5 9 8 10 15 12 17 5 2 -6 7 -9 10 -7z m-350 -5 c1 -1 7 -2 14 -3 6 0 13 -7
16 -14 2 -7 -2 -10 -11 -6 -8 3 -18 1 -22 -5 -10 -17 -39 -13 -52 8 -10 15
-10 21 0 24 11 4 48 2 55 -4z m965 -79 c-8 -29 -39 -45 -47 -24 -10 26 -7 34
17 43 28 11 36 6 30 -19z m-163 -4 c0 -3 -4 -8 -10 -11 -5 -3 -10 -1 -10 4 0
6 5 11 10 11 6 0 10 -2 10 -4z m-1050 -27 c0 -6 -4 -7 -10 -4 -5 3 -10 11 -10
16 0 6 5 7 10 4 6 -3 10 -11 10 -16z m-316 -10 c-3 -5 -10 -7 -15 -3 -5 3 -7
10 -3 15 3 5 10 7 15 3 5 -3 7 -10 3 -15z"/>
<path d="M430 1125 c-11 -13 -7 -15 30 -15 37 0 41 2 30 15 -7 8 -20 15 -30
15 -10 0 -23 -7 -30 -15z"/>
<path d="M1650 1150 c8 -5 20 -10 25 -10 6 0 3 5 -5 10 -8 5 -19 10 -25 10 -5
0 -3 -5 5 -10z"/>
<path d="M1717 1120 c10 -11 19 -20 21 -20 1 0 -2 9 -8 20 -6 11 -15 20 -20
20 -6 0 -2 -9 7 -20z"/>
<path d="M1637 1118 c-25 -9 -28 -14 -25 -46 2 -30 8 -38 30 -46 22 -8 32 -6
48 9 44 40 4 103 -53 83z m13 -28 c-13 -8 -13 -11 -1 -22 10 -10 12 -10 7 0
-5 8 0 12 14 12 28 0 23 -32 -5 -36 -30 -5 -50 30 -29 51 9 9 19 13 22 10 4
-3 0 -10 -8 -15z"/>
<path d="M1571 1094 c0 -11 3 -14 6 -6 3 7 2 16 -1 19 -3 4 -6 -2 -5 -13z"/>
<path d="M1730 1085 c0 -5 5 -17 10 -25 5 -8 10 -10 10 -5 0 6 -5 17 -10 25
-5 8 -10 11 -10 5z"/>
<path d="M1717 1035 c-4 -8 -3 -16 1 -19 4 -3 9 4 9 15 2 23 -3 25 -10 4z"/>
<path d="M1580 1036 c0 -2 7 -9 15 -16 13 -11 14 -10 9 4 -5 14 -24 23 -24 12z"/>
<path d="M1066 1087 c3 -10 9 -15 12 -12 3 3 0 11 -7 18 -10 9 -11 8 -5 -6z"/>
<path d="M1090 1079 c0 -5 5 -7 10 -4 6 3 10 8 10 11 0 2 -4 4 -10 4 -5 0 -10
-5 -10 -11z"/>
<path d="M2053 1024 c-5 -13 -7 -13 -14 -2 -7 10 -9 9 -9 -4 0 -24 17 -23 30
2 6 11 8 20 5 20 -3 0 -8 -7 -12 -16z"/>
<path d="M996 1212 c-3 -4 4 -9 15 -9 23 -2 25 3 4 10 -8 4 -16 3 -19 -1z"/>
<path d="M1550 1201 c0 -6 4 -13 10 -16 6 -3 7 1 4 9 -7 18 -14 21 -14 7z"/>
<path d="M776 1185 c4 -8 8 -15 10 -15 2 0 4 7 4 15 0 8 -4 15 -10 15 -5 0 -7
-7 -4 -15z"/>
<path d="M166 1132 c-2 -4 -1 -14 4 -22 7 -11 9 -9 7 8 -1 24 -3 26 -11 14z"/>
<path d="M1220 1125 c-11 -13 -7 -15 30 -15 37 0 41 2 30 15 -7 8 -20 15 -30
15 -10 0 -23 -7 -30 -15z"/>
<path d="M187 1091 c-4 -17 -3 -21 5 -13 5 5 8 16 6 23 -3 8 -7 3 -11 -10z"/>
<path d="M2060 1091 c0 -6 4 -13 10 -16 6 -3 7 1 4 9 -7 18 -14 21 -14 7z"/>
<path d="M695 1060 c3 -5 8 -10 11 -10 2 0 4 5 4 10 0 6 -5 10 -11 10 -5 0 -7
-4 -4 -10z"/>
<path d="M169 1007 c7 -7 14 -8 21 -1 6 6 2 10 -12 11 -16 2 -18 -1 -9 -10z"/>
<path d="M1780 991 c0 -6 4 -13 10 -16 6 -3 7 1 4 9 -7 18 -14 21 -14 7z"/>
<path d="M725 980 c3 -5 8 -10 11 -10 2 0 4 5 4 10 0 6 -5 10 -11 10 -5 0 -7
-4 -4 -10z"/>
</g>
</svg>
